# This file uses centimeters as units for non-parametric coordinates.

mtllib houtou.mtl
g default
v 0.341201 0.072262 0.295486
v 0.320036 0.113801 0.295487
v 0.287071 0.146766 0.295486
v 0.245533 0.167931 0.295486
v 0.199487 0.175223 0.295486
v 0.153441 0.167931 0.295486
v 0.111902 0.146766 0.295486
v 0.078937 0.113801 0.295486
v 0.057773 0.072262 0.295486
v 0.050480 0.026217 0.295486
v 0.057773 -0.019829 0.295486
v 0.078937 -0.061368 0.295486
v 0.111903 -0.094333 0.295486
v 0.153441 -0.115497 0.295486
v 0.199487 -0.122790 0.295486
v 0.245532 -0.115497 0.295486
v 0.287071 -0.094333 0.295486
v 0.320036 -0.061368 0.295486
v 0.341201 -0.019829 0.295486
v 0.348493 0.026217 0.295486
v 0.291963 0.056264 0.361349
v 0.278152 0.083370 0.361349
v 0.256640 0.104882 0.361349
v 0.229534 0.118693 0.361349
v 0.199487 0.123452 0.361349
v 0.169439 0.118693 0.361349
v 0.142333 0.104882 0.361349
v 0.120821 0.083370 0.361349
v 0.107010 0.056264 0.361349
v 0.102251 0.026217 0.361349
v 0.107010 -0.003831 0.361349
v 0.120821 -0.030937 0.361349
v 0.142333 -0.052449 0.361349
v 0.169439 -0.066260 0.361349
v 0.199487 -0.071019 0.361349
v 0.229534 -0.066260 0.361349
v 0.256640 -0.052449 0.361349
v 0.278152 -0.030937 0.361349
v 0.291963 -0.003831 0.361349
v 0.296722 0.026217 0.361349
v 0.239640 0.039263 0.419830
v 0.233643 0.051033 0.419830
v 0.224303 0.060373 0.419830
v 0.212533 0.066370 0.419830
v 0.199487 0.068436 0.419830
v 0.186440 0.066370 0.419830
v 0.174671 0.060373 0.419830
v 0.165330 0.051033 0.419830
v 0.159334 0.039263 0.419830
v 0.157267 0.026217 0.419830
v 0.159334 0.013170 0.419830
v 0.165331 0.001401 0.419830
v 0.174671 -0.007940 0.419830
v 0.186440 -0.013937 0.419830
v 0.199487 -0.016003 0.419830
v 0.212533 -0.013937 0.419830
v 0.224303 -0.007940 0.419830
v 0.233643 0.001401 0.419830
v 0.239640 0.013170 0.419830
v 0.241706 0.026217 0.419830
v 0.239640 0.039263 1.747435
v 0.233643 0.051033 1.747435
v 0.224303 0.060373 1.747435
v 0.212533 0.066370 1.747435
v 0.199487 0.068436 1.747435
v 0.186440 0.066370 1.747435
v 0.174671 0.060373 1.747435
v 0.165330 0.051033 1.747435
v 0.159334 0.039263 1.747435
v 0.157267 0.026217 1.747435
v 0.159334 0.013170 1.747435
v 0.165330 0.001401 1.747435
v 0.174671 -0.007940 1.747435
v 0.186440 -0.013937 1.747435
v 0.199487 -0.016003 1.747435
v 0.212533 -0.013937 1.747435
v 0.224303 -0.007940 1.747435
v 0.233643 0.001401 1.747435
v 0.239640 0.013170 1.747435
v 0.241706 0.026217 1.747435
v 0.199487 0.026217 0.295491
v 0.199487 0.026217 1.747435
vt 0.648603 0.107966
vt 0.626409 0.064408
vt 0.591842 0.029841
vt 0.548284 0.007647
vt 0.500000 -0.000000
vt 0.451716 0.007647
vt 0.408159 0.029841
vt 0.373591 0.064409
vt 0.351397 0.107966
vt 0.343750 0.156250
vt 0.351397 0.204534
vt 0.373591 0.248091
vt 0.408159 0.282659
vt 0.451716 0.304853
vt 0.500000 0.312500
vt 0.548284 0.304853
vt 0.591841 0.282659
vt 0.626409 0.248091
vt 0.648603 0.204534
vt 0.656250 0.156250
vt 0.375000 0.312500
vt 0.387500 0.312500
vt 0.400000 0.312500
vt 0.412500 0.312500
vt 0.425000 0.312500
vt 0.437500 0.312500
vt 0.450000 0.312500
vt 0.462500 0.312500
vt 0.475000 0.312500
vt 0.487500 0.312500
vt 0.500000 0.312500
vt 0.512500 0.312500
vt 0.525000 0.312500
vt 0.537500 0.312500
vt 0.550000 0.312500
vt 0.562500 0.312500
vt 0.575000 0.312500
vt 0.587500 0.312500
vt 0.600000 0.312500
vt 0.612500 0.312500
vt 0.625000 0.312500
vt 0.375000 0.437813
vt 0.387500 0.437813
vt 0.400000 0.437813
vt 0.412500 0.437813
vt 0.425000 0.437813
vt 0.437500 0.437813
vt 0.450000 0.437813
vt 0.462500 0.437813
vt 0.475000 0.437813
vt 0.487500 0.437813
vt 0.500000 0.437813
vt 0.512500 0.437813
vt 0.525000 0.437813
vt 0.537500 0.437813
vt 0.550000 0.437813
vt 0.562500 0.437813
vt 0.575000 0.437813
vt 0.587500 0.437813
vt 0.600000 0.437813
vt 0.612500 0.437813
vt 0.625000 0.437813
vt 0.375000 0.563127
vt 0.387500 0.563127
vt 0.400000 0.563127
vt 0.412500 0.563127
vt 0.425000 0.563127
vt 0.437500 0.563127
vt 0.450000 0.563127
vt 0.462500 0.563127
vt 0.475000 0.563127
vt 0.487500 0.563127
vt 0.500000 0.563127
vt 0.512500 0.563127
vt 0.525000 0.563127
vt 0.537500 0.563127
vt 0.550000 0.563127
vt 0.562500 0.563127
vt 0.575000 0.563127
vt 0.587500 0.563127
vt 0.600000 0.563127
vt 0.612500 0.563127
vt 0.625000 0.563127
vt 0.375000 0.688440
vt 0.387500 0.688440
vt 0.400000 0.688440
vt 0.412500 0.688440
vt 0.425000 0.688440
vt 0.437500 0.688440
vt 0.450000 0.688440
vt 0.462500 0.688440
vt 0.475000 0.688440
vt 0.487500 0.688440
vt 0.500000 0.688440
vt 0.512500 0.688440
vt 0.525000 0.688440
vt 0.537500 0.688440
vt 0.550000 0.688440
vt 0.562500 0.688440
vt 0.575000 0.688440
vt 0.587500 0.688440
vt 0.600000 0.688440
vt 0.612500 0.688440
vt 0.625000 0.688440
vt 0.648603 0.795466
vt 0.626409 0.751908
vt 0.591842 0.717341
vt 0.548284 0.695147
vt 0.500000 0.687500
vt 0.451716 0.695147
vt 0.408159 0.717341
vt 0.373591 0.751909
vt 0.351397 0.795466
vt 0.343750 0.843750
vt 0.351397 0.892034
vt 0.373591 0.935591
vt 0.408159 0.970159
vt 0.451716 0.992353
vt 0.500000 1.000000
vt 0.548284 0.992353
vt 0.591841 0.970159
vt 0.626409 0.935591
vt 0.648603 0.892034
vt 0.656250 0.843750
vt 0.500000 0.150000
vt 0.500000 0.837500
vn 0.745238 0.250483 0.617964
vn 0.631352 0.468517 0.617969
vn 0.723141 0.245888 0.645451
vn 0.611762 0.457317 0.645452
vn 0.455670 0.640688 0.617968
vn 0.440507 0.623977 0.645451
vn 0.235385 0.750143 0.617964
vn 0.226122 0.729564 0.645450
vn -0.007939 0.786167 0.617963
vn -0.010390 0.763733 0.645449
vn -0.250486 0.745237 0.617963
vn -0.245886 0.723143 0.645449
vn -0.468519 0.631354 0.617966
vn -0.457317 0.611763 0.645451
vn -0.640689 0.455672 0.617965
vn -0.623980 0.440504 0.645450
vn -0.750143 0.235387 0.617964
vn -0.729564 0.226123 0.645450
vn -0.786167 -0.007939 0.617964
vn -0.763732 -0.010391 0.645449
vn -0.745236 -0.250486 0.617964
vn -0.723142 -0.245886 0.645450
vn -0.631355 -0.468519 0.617965
vn -0.611763 -0.457317 0.645451
vn -0.455671 -0.640690 0.617965
vn -0.440502 -0.623981 0.645450
vn -0.235385 -0.750143 0.617964
vn -0.226122 -0.729564 0.645449
vn 0.007939 -0.786167 0.617963
vn 0.010390 -0.763733 0.645449
vn 0.250486 -0.745237 0.617964
vn 0.245886 -0.723143 0.645449
vn 0.468518 -0.631356 0.617966
vn 0.457315 -0.611765 0.645451
vn 0.640689 -0.455671 0.617966
vn 0.623980 -0.440502 0.645451
vn 0.750143 -0.235385 0.617964
vn 0.729564 -0.226121 0.645450
vn 0.786167 0.007938 0.617963
vn 0.763733 0.010390 0.645449
vn 0.949327 0.310001 0.051739
vn 0.807069 0.588186 0.051739
vn 0.585810 0.808795 0.051739
vn 0.307205 0.950236 0.051740
vn -0.001470 0.998660 0.051739
vn -0.310004 0.949327 0.051740
vn -0.588187 0.807068 0.051739
vn -0.808795 0.585810 0.051739
vn -0.950235 0.307206 0.051739
vn -0.998659 -0.001469 0.051739
vn -0.949326 -0.310004 0.051740
vn -0.807068 -0.588187 0.051739
vn -0.585812 -0.808794 0.051739
vn -0.307207 -0.950235 0.051739
vn 0.001470 -0.998660 0.051739
vn 0.310005 -0.949326 0.051740
vn 0.588187 -0.807068 0.051739
vn 0.808794 -0.585811 0.051739
vn 0.950235 -0.307208 0.051739
vn 0.998659 0.001470 0.051739
vn 0.951056 0.309019 0.000000
vn 0.809016 0.587787 0.000000
vn 0.587787 0.809016 0.000000
vn 0.309017 0.951057 0.000000
vn 0.000000 1.000000 0.000000
vn -0.309018 0.951056 -0.000000
vn -0.587785 0.809017 -0.000000
vn -0.809017 0.587785 0.000000
vn -0.951057 0.309017 0.000000
vn -1.000000 0.000000 0.000000
vn -0.951056 -0.309018 0.000000
vn -0.809017 -0.587785 -0.000000
vn -0.587785 -0.809017 0.000000
vn -0.309017 -0.951057 0.000000
vn 0.000000 -1.000000 0.000000
vn 0.309018 -0.951056 -0.000000
vn 0.587785 -0.809017 -0.000000
vn 0.809017 -0.587785 0.000000
vn 0.951057 -0.309017 0.000000
vn 1.000000 -0.000002 0.000000
vn -0.000021 -0.000015 -1.000000
vn -0.000029 -0.000005 -1.000000
vn 0.000000 0.000000 -1.000000
vn -0.000013 -0.000026 -1.000000
vn -0.000009 -0.000027 -1.000000
vn 0.000000 -0.000028 -1.000000
vn 0.000009 -0.000027 -1.000000
vn 0.000017 -0.000024 -1.000000
vn 0.000023 -0.000019 -1.000000
vn 0.000027 -0.000010 -1.000000
vn 0.000029 0.000000 -1.000000
vn 0.000027 0.000009 -1.000000
vn 0.000023 0.000016 -1.000000
vn 0.000017 0.000023 -1.000000
vn 0.000009 0.000027 -1.000000
vn 0.000000 0.000029 -1.000000
vn -0.000009 0.000027 -1.000000
vn -0.000017 0.000022 -1.000000
vn -0.000023 0.000017 -1.000000
vn -0.000027 0.000010 -1.000000
vn -0.000029 -0.000000 -1.000000
vn 0.000000 0.000000 1.000000
vn 0.000000 -0.000004 1.000000
vn 0.000000 -0.000000 1.000000
vn 0.000000 -0.000004 1.000000
vn 0.000000 0.000000 1.000000
vn 0.000000 0.000000 1.000000
vn 0.000000 0.000000 1.000000
vn 0.000000 -0.000002 1.000000
vn 0.000000 -0.000002 1.000000
vn 0.000000 0.000004 1.000000
vn 0.000000 0.000000 1.000000
vn 0.000000 -0.000000 1.000000
vn 0.000000 0.000004 1.000000
vn 0.000000 0.000000 1.000000
vn 0.000000 0.000000 1.000000
vn 0.000000 0.000001 1.000000
vn 0.000000 0.000002 1.000000
vn 0.000000 -0.000001 1.000000
vn 0.000000 -0.000002 1.000000
vn 0.000000 0.000000 1.000000
vn 0.000000 0.000000 1.000000
s 1
g pCylinder1
usemtl initialShadingGroup
f 1/21/1 2/22/2 21/42/3
f 21/42/3 2/22/2 22/43/4
f 2/22/2 3/23/5 22/43/4
f 22/43/4 3/23/5 23/44/6
f 3/23/5 4/24/7 23/44/6
f 23/44/6 4/24/7 24/45/8
f 4/24/7 5/25/9 24/45/8
f 24/45/8 5/25/9 25/46/10
f 5/25/9 6/26/11 25/46/10
f 25/46/10 6/26/11 26/47/12
f 6/26/11 7/27/13 26/47/12
f 26/47/12 7/27/13 27/48/14
f 7/27/13 8/28/15 27/48/14
f 27/48/14 8/28/15 28/49/16
f 8/28/15 9/29/17 28/49/16
f 28/49/16 9/29/17 29/50/18
f 9/29/17 10/30/19 29/50/18
f 29/50/18 10/30/19 30/51/20
f 10/30/19 11/31/21 30/51/20
f 30/51/20 11/31/21 31/52/22
f 11/31/21 12/32/23 31/52/22
f 31/52/22 12/32/23 32/53/24
f 12/32/23 13/33/25 32/53/24
f 32/53/24 13/33/25 33/54/26
f 13/33/25 14/34/27 33/54/26
f 33/54/26 14/34/27 34/55/28
f 14/34/27 15/35/29 34/55/28
f 34/55/28 15/35/29 35/56/30
f 15/35/29 16/36/31 35/56/30
f 35/56/30 16/36/31 36/57/32
f 16/36/31 17/37/33 36/57/32
f 36/57/32 17/37/33 37/58/34
f 17/37/33 18/38/35 37/58/34
f 37/58/34 18/38/35 38/59/36
f 18/38/35 19/39/37 38/59/36
f 38/59/36 19/39/37 39/60/38
f 19/39/37 20/40/39 39/60/38
f 39/60/38 20/40/39 40/61/40
f 20/40/39 1/41/1 40/61/40
f 40/61/40 1/41/1 21/62/3
f 21/42/3 22/43/4 41/63/41
f 41/63/41 22/43/4 42/64/42
f 22/43/4 23/44/6 42/64/42
f 42/64/42 23/44/6 43/65/43
f 23/44/6 24/45/8 43/65/43
f 43/65/43 24/45/8 44/66/44
f 24/45/8 25/46/10 44/66/44
f 44/66/44 25/46/10 45/67/45
f 25/46/10 26/47/12 45/67/45
f 45/67/45 26/47/12 46/68/46
f 26/47/12 27/48/14 46/68/46
f 46/68/46 27/48/14 47/69/47
f 27/48/14 28/49/16 47/69/47
f 47/69/47 28/49/16 48/70/48
f 28/49/16 29/50/18 48/70/48
f 48/70/48 29/50/18 49/71/49
f 29/50/18 30/51/20 49/71/49
f 49/71/49 30/51/20 50/72/50
f 30/51/20 31/52/22 50/72/50
f 50/72/50 31/52/22 51/73/51
f 31/52/22 32/53/24 51/73/51
f 51/73/51 32/53/24 52/74/52
f 32/53/24 33/54/26 52/74/52
f 52/74/52 33/54/26 53/75/53
f 33/54/26 34/55/28 53/75/53
f 53/75/53 34/55/28 54/76/54
f 34/55/28 35/56/30 54/76/54
f 54/76/54 35/56/30 55/77/55
f 35/56/30 36/57/32 55/77/55
f 55/77/55 36/57/32 56/78/56
f 36/57/32 37/58/34 56/78/56
f 56/78/56 37/58/34 57/79/57
f 37/58/34 38/59/36 57/79/57
f 57/79/57 38/59/36 58/80/58
f 38/59/36 39/60/38 58/80/58
f 58/80/58 39/60/38 59/81/59
f 39/60/38 40/61/40 59/81/59
f 59/81/59 40/61/40 60/82/60
f 40/61/40 21/62/3 60/82/60
f 60/82/60 21/62/3 41/83/41
f 41/63/41 42/64/42 61/84/61
f 61/84/61 42/64/42 62/85/62
f 42/64/42 43/65/43 62/85/62
f 62/85/62 43/65/43 63/86/63
f 43/65/43 44/66/44 63/86/63
f 63/86/63 44/66/44 64/87/64
f 44/66/44 45/67/45 64/87/64
f 64/87/64 45/67/45 65/88/65
f 45/67/45 46/68/46 65/88/65
f 65/88/65 46/68/46 66/89/66
f 46/68/46 47/69/47 66/89/66
f 66/89/66 47/69/47 67/90/67
f 47/69/47 48/70/48 67/90/67
f 67/90/67 48/70/48 68/91/68
f 48/70/48 49/71/49 68/91/68
f 68/91/68 49/71/49 69/92/69
f 49/71/49 50/72/50 69/92/69
f 69/92/69 50/72/50 70/93/70
f 50/72/50 51/73/51 70/93/70
f 70/93/70 51/73/51 71/94/71
f 51/73/51 52/74/52 71/94/71
f 71/94/71 52/74/52 72/95/72
f 52/74/52 53/75/53 72/95/72
f 72/95/72 53/75/53 73/96/73
f 53/75/53 54/76/54 73/96/73
f 73/96/73 54/76/54 74/97/74
f 54/76/54 55/77/55 74/97/74
f 74/97/74 55/77/55 75/98/75
f 55/77/55 56/78/56 75/98/75
f 75/98/75 56/78/56 76/99/76
f 56/78/56 57/79/57 76/99/76
f 76/99/76 57/79/57 77/100/77
f 57/79/57 58/80/58 77/100/77
f 77/100/77 58/80/58 78/101/78
f 58/80/58 59/81/59 78/101/78
f 78/101/78 59/81/59 79/102/79
f 59/81/59 60/82/60 79/102/79
f 79/102/79 60/82/60 80/103/80
f 60/82/60 41/83/41 80/103/80
f 80/103/80 41/83/41 61/104/61
s 2
f 2/2/81 1/1/82 81/125/83
f 3/3/84 2/2/81 81/125/83
f 4/4/85 3/3/84 81/125/83
f 5/5/86 4/4/85 81/125/83
f 6/6/87 5/5/86 81/125/83
f 7/7/88 6/6/87 81/125/83
f 8/8/89 7/7/88 81/125/83
f 9/9/90 8/8/89 81/125/83
f 10/10/91 9/9/90 81/125/83
f 11/11/92 10/10/91 81/125/83
f 12/12/93 11/11/92 81/125/83
f 13/13/94 12/12/93 81/125/83
f 14/14/95 13/13/94 81/125/83
f 15/15/96 14/14/95 81/125/83
f 16/16/97 15/15/96 81/125/83
f 17/17/98 16/16/97 81/125/83
f 18/18/99 17/17/98 81/125/83
f 19/19/100 18/18/99 81/125/83
f 20/20/101 19/19/100 81/125/83
f 1/1/82 20/20/101 81/125/83
s 3
f 61/123/102 62/122/103 82/126/104
f 62/122/103 63/121/105 82/126/104
f 63/121/105 64/120/106 82/126/104
f 64/120/106 65/119/107 82/126/104
f 65/119/107 66/118/108 82/126/104
f 66/118/108 67/117/109 82/126/104
f 67/117/109 68/116/110 82/126/104
f 68/116/110 69/115/111 82/126/104
f 69/115/111 70/114/112 82/126/104
f 70/114/112 71/113/113 82/126/104
f 71/113/113 72/112/114 82/126/104
f 72/112/114 73/111/115 82/126/104
f 73/111/115 74/110/116 82/126/104
f 74/110/116 75/109/117 82/126/104
f 75/109/117 76/108/118 82/126/104
f 76/108/118 77/107/119 82/126/104
f 77/107/119 78/106/120 82/126/104
f 78/106/120 79/105/121 82/126/104
f 79/105/121 80/124/122 82/126/104
f 80/124/122 61/123/102 82/126/104
