# This file uses centimeters as units for non-parametric coordinates.

mtllib x00_MoveRWing.mtl
g default
v -0.081334 -0.029398 -0.411642
v -0.733731 -0.029398 -0.013838
v 0.295153 0.000000 -0.578636
v -0.779984 0.000000 -0.047810
v -0.081334 0.029398 -0.411642
v -0.733731 0.029398 -0.013838
v 1.805031 0.029398 1.262717
v 1.658517 0.029398 1.353752
v 2.044900 0.000000 1.272539
v 1.674586 0.000000 1.568676
v 1.805031 -0.029398 1.262717
v 1.658517 -0.029398 1.353752
v -0.081334 -0.029398 -0.411642
v -0.733731 -0.029398 -0.013838
v 0.295153 0.000000 -0.578636
v -0.779984 0.000000 -0.047810
v -0.081334 0.029398 -0.411642
v -0.733731 0.029398 -0.013838
v 1.805031 0.029398 1.262717
v 1.658517 0.029398 1.353752
v 2.044900 0.000000 1.272539
v 1.674586 0.000000 1.568676
v 1.805031 -0.029398 1.262717
v 1.658517 -0.029398 1.353752
vt 0.625000 0.000000
vt 0.625000 0.250000
vt 0.375000 0.000000
vt 0.375000 0.250000
vt 0.625000 0.500000
vt 0.375000 0.500000
vt 0.625000 0.625000
vt 0.375000 0.625000
vt 0.375000 0.750000
vt 0.625000 0.750000
vt 0.375000 1.000000
vt 0.625000 1.000000
vt 0.625000 0.125000
vt 0.875000 0.125000
vt 0.875000 0.000000
vt 0.875000 0.250000
vt 0.375000 0.125000
vt 0.125000 0.000000
vt 0.125000 0.125000
vt 0.125000 0.250000
vt 0.625000 0.000000
vt 0.625000 0.250000
vt 0.375000 0.000000
vt 0.375000 0.250000
vt 0.625000 0.500000
vt 0.375000 0.500000
vt 0.625000 0.625000
vt 0.375000 0.625000
vt 0.375000 0.750000
vt 0.625000 0.750000
vt 0.375000 1.000000
vt 0.625000 1.000000
vt 0.625000 0.125000
vt 0.875000 0.125000
vt 0.875000 0.000000
vt 0.875000 0.250000
vt 0.375000 0.125000
vt 0.125000 0.000000
vt 0.125000 0.125000
vt 0.125000 0.250000
vn -0.479437 0.000000 -0.877576
vn -0.479437 0.000000 -0.877576
vn -0.482403 0.000000 -0.875949
vn -0.482403 0.000000 -0.875949
vn -0.479437 0.000000 -0.877576
vn -0.482403 0.000000 -0.875949
vn 0.000000 1.000000 0.000000
vn 0.000000 1.000000 0.000000
vn 0.000000 1.000000 0.000000
vn 0.000000 1.000000 0.000000
vn 0.000000 1.000000 0.000000
vn 0.000000 1.000000 0.000000
vn 0.080272 0.988365 0.129192
vn 0.600437 0.000000 0.799672
vn 0.110368 0.983755 0.141581
vn 0.110368 0.983755 0.141581
vn 0.600437 0.000000 0.799672
vn 0.624549 0.000000 0.780986
vn 0.624549 0.000000 0.780986
vn 0.600437 0.000000 0.799672
vn 0.110368 -0.983755 0.141581
vn 0.110368 -0.983755 0.141581
vn 0.600437 0.000000 0.799672
vn 0.080272 -0.988365 0.129192
vn 0.000000 -1.000000 0.000000
vn 0.000000 -1.000000 0.000000
vn 0.000000 -1.000000 0.000000
vn 0.000000 -1.000000 0.000000
vn 0.000000 -1.000000 0.000000
vn 0.000000 -1.000000 0.000000
vn -0.550005 0.000000 0.835161
vn -0.548540 -0.034276 0.835421
vn -0.496942 0.000000 0.867784
vn -0.548540 -0.034276 0.835421
vn -0.080604 -0.986724 0.140995
vn -0.496942 0.000000 0.867784
vn -0.550005 0.000000 0.835161
vn -0.496942 0.000000 0.867784
vn -0.548540 0.034276 0.835421
vn -0.496942 0.000000 0.867784
vn -0.080604 0.986724 0.140995
vn -0.548540 0.034276 0.835421
vn 0.051908 -0.996938 -0.058480
vn 0.666300 0.000001 -0.745684
vn 0.115945 -0.987053 -0.110832
vn 0.115945 -0.987053 -0.110832
vn 0.666300 0.000001 -0.745684
vn 0.726736 0.000000 -0.686917
vn 0.726736 0.000000 -0.686917
vn 0.666300 0.000001 -0.745684
vn 0.115945 0.987053 -0.110832
vn 0.115945 0.987053 -0.110832
vn 0.666300 0.000001 -0.745684
vn 0.051908 0.996938 -0.058480
vn 0.591974 0.000000 -0.805957
vn -0.479437 0.000000 -0.877576
vn -0.479437 0.000000 -0.877576
vn -0.482403 0.000000 -0.875949
vn -0.482403 0.000000 -0.875949
vn -0.405461 0.000000 -0.914112
vn -0.479437 0.000000 -0.877576
vn -0.479437 0.000000 -0.877576
vn -0.482403 0.000000 -0.875949
vn -0.482403 0.000000 -0.875949
vn -0.479437 0.000000 -0.877576
vn -0.482403 0.000000 -0.875949
vn 0.000000 1.000000 0.000000
vn 0.000000 1.000000 0.000000
vn 0.000000 1.000000 0.000000
vn 0.000000 1.000000 0.000000
vn 0.000000 1.000000 0.000000
vn 0.000000 1.000000 0.000000
vn 0.080272 0.988365 0.129192
vn 0.600437 0.000000 0.799672
vn 0.110368 0.983755 0.141581
vn 0.110368 0.983755 0.141581
vn 0.600437 0.000000 0.799672
vn 0.624549 0.000000 0.780986
vn 0.624549 0.000000 0.780986
vn 0.600437 0.000000 0.799672
vn 0.110368 -0.983755 0.141581
vn 0.110368 -0.983755 0.141581
vn 0.600437 0.000000 0.799672
vn 0.080272 -0.988365 0.129192
vn 0.000000 -1.000000 0.000000
vn 0.000000 -1.000000 0.000000
vn 0.000000 -1.000000 0.000000
vn 0.000000 -1.000000 0.000000
vn 0.000000 -1.000000 0.000000
vn 0.000000 -1.000000 0.000000
vn -0.550005 0.000000 0.835161
vn -0.548540 -0.034276 0.835421
vn -0.496942 0.000000 0.867784
vn -0.548540 -0.034276 0.835421
vn -0.080604 -0.986724 0.140995
vn -0.496942 0.000000 0.867784
vn -0.550005 0.000000 0.835161
vn -0.496942 0.000000 0.867784
vn -0.548540 0.034276 0.835421
vn -0.496942 0.000000 0.867784
vn -0.080604 0.986724 0.140995
vn -0.548540 0.034276 0.835421
vn 0.051908 -0.996938 -0.058480
vn 0.666300 0.000001 -0.745684
vn 0.115945 -0.987053 -0.110832
vn 0.115945 -0.987053 -0.110832
vn 0.666300 0.000001 -0.745684
vn 0.726736 0.000000 -0.686917
vn 0.726736 0.000000 -0.686917
vn 0.666300 0.000001 -0.745684
vn 0.115945 0.987053 -0.110832
vn 0.115945 0.987053 -0.110832
vn 0.666300 0.000001 -0.745684
vn 0.051908 0.996938 -0.058480
vn 0.591974 0.000000 -0.805957
vn -0.479437 0.000000 -0.877576
vn -0.479437 0.000000 -0.877576
vn -0.482403 0.000000 -0.875949
vn -0.482403 0.000000 -0.875949
vn -0.405461 0.000000 -0.914112
s off
g x00_MoveRWing:pCube3
usemtl x00_MoveRWing:initialShadingGroup
f 2/1/1 6/2/2 1/3/3
f 1/3/4 6/2/5 5/4/6
f 6/2/7 8/5/8 5/4/9
f 5/4/10 8/5/11 7/6/12
f 8/5/13 10/7/14 7/6/15
f 7/6/16 10/7/17 9/8/18
f 9/8/19 10/7/20 11/9/21
f 11/9/22 10/7/23 12/10/24
f 11/9/25 12/10/26 1/11/27
f 1/11/28 12/10/29 2/12/30
f 4/13/31 2/1/32 10/14/33
f 2/1/34 12/15/35 10/14/36
f 4/13/37 10/14/38 6/2/39
f 10/14/40 8/16/41 6/2/42
f 1/3/43 3/17/44 11/18/45
f 11/18/46 3/17/47 9/19/48
f 9/19/49 3/17/50 7/20/51
f 7/20/52 3/17/53 5/4/54
f 4/13/55 6/2/56 2/1/57
f 1/3/58 5/4/59 3/17/60
f 14/21/61 18/22/62 13/23/63
f 13/23/64 18/22/65 17/24/66
f 18/22/67 20/25/68 17/24/69
f 17/24/70 20/25/71 19/26/72
f 20/25/73 22/27/74 19/26/75
f 19/26/76 22/27/77 21/28/78
f 21/28/79 22/27/80 23/29/81
f 23/29/82 22/27/83 24/30/84
f 23/29/85 24/30/86 13/31/87
f 13/31/88 24/30/89 14/32/90
f 16/33/91 14/21/92 22/34/93
f 14/21/94 24/35/95 22/34/96
f 16/33/97 22/34/98 18/22/99
f 22/34/100 20/36/101 18/22/102
f 13/23/103 15/37/104 23/38/105
f 23/38/106 15/37/107 21/39/108
f 21/39/109 15/37/110 19/40/111
f 19/40/112 15/37/113 17/24/114
f 16/33/115 18/22/116 14/21/117
f 13/23/118 17/24/119 15/37/120
