# This file uses centimeters as units for non-parametric coordinates.

mtllib x00_MoveLCanardWing.mtl
g default
v 0.330914 0.236402 -0.761047
v 0.153844 0.052951 -0.548011
v -0.029973 0.018340 0.397471
v 0.549022 0.605210 -0.359500
v 0.587144 0.591254 -0.653821
v 0.325771 0.235345 -0.866826
v 0.117083 0.019137 -0.615750
v -0.099557 -0.021655 0.498560
v 0.582824 0.670008 -0.393578
v 0.627754 0.653560 -0.740453
v 0.303942 0.257232 -0.765528
v 0.126872 0.073781 -0.552492
v -0.056945 0.039170 0.392990
v 0.522049 0.626040 -0.363981
v 0.560172 0.612085 -0.658302
v 0.255367 0.249145 -0.247107
v 0.228394 0.269975 -0.251589
vt 0.375000 0.312500
vt 0.425000 0.312500
vt 0.425000 0.500470
vt 0.375000 0.500470
vt 0.475000 0.312500
vt 0.475000 0.500470
vt 0.525000 0.312500
vt 0.525000 0.500470
vt 0.575000 0.312500
vt 0.575000 0.500470
vt 0.625000 0.312500
vt 0.625000 0.500470
vt 0.425000 0.688440
vt 0.375000 0.688440
vt 0.475000 0.688440
vt 0.525000 0.688440
vt 0.575000 0.688440
vt 0.625000 0.688440
vt 0.373591 0.064409
vt 0.548284 0.007647
vt 0.500000 0.150000
vt 0.373591 0.248091
vt 0.548284 0.304853
vt 0.656250 0.156250
vt 0.548284 0.992353
vt 0.373591 0.935591
vt 0.500000 0.837500
vt 0.373591 0.751909
vt 0.548284 0.695147
vt 0.656250 0.843750
vn 0.703334 -0.710343 -0.027101
vn 0.703334 -0.710343 -0.027101
vn -0.316580 -0.572620 -0.756230
vn -0.316579 -0.572620 -0.756230
vn 0.585869 -0.805999 0.084397
vn 0.585869 -0.805999 0.084397
vn -0.589802 -0.794649 -0.143757
vn -0.589802 -0.794649 -0.143757
vn 0.841846 -0.169704 0.512344
vn 0.841846 -0.169704 0.512344
vn 0.341503 0.598169 0.724962
vn 0.341503 0.598169 0.724962
vn 0.905929 -0.400875 0.136350
vn 0.905929 -0.400875 0.136350
vn 0.606447 0.794071 0.040899
vn 0.606448 0.794070 0.040899
vn 0.815099 -0.578332 -0.033854
vn 0.815099 -0.578332 -0.033854
vn 0.246861 0.112587 -0.962488
vn 0.246861 0.112587 -0.962488
vn -0.316579 -0.572620 -0.756230
vn -0.316580 -0.572620 -0.756230
vn -0.832872 0.476038 -0.282333
vn -0.832872 0.476038 -0.282333
vn -0.589802 -0.794649 -0.143757
vn -0.589802 -0.794649 -0.143757
vn -0.919467 0.356541 -0.165707
vn -0.919467 0.356541 -0.165707
vn 0.341503 0.598169 0.724962
vn 0.341503 0.598169 0.724962
vn -0.461130 0.836556 0.295861
vn -0.461130 0.836556 0.295861
vn 0.606448 0.794070 0.040899
vn 0.606447 0.794071 0.040899
vn -0.618894 0.776713 -0.116992
vn -0.618894 0.776713 -0.116992
vn 0.246861 0.112587 -0.962488
vn 0.246861 0.112587 -0.962488
vn -0.731814 0.616316 -0.290866
vn -0.731814 0.616316 -0.290866
vn 0.784702 -0.606008 0.130374
vn 0.784702 -0.606008 0.130374
vn 0.784702 -0.606008 0.130374
vn 0.784702 -0.606008 0.130374
vn 0.784702 -0.606008 0.130374
vn 0.784702 -0.606008 0.130374
vn 0.784702 -0.606008 0.130374
vn 0.784702 -0.606008 0.130374
vn 0.784702 -0.606008 0.130374
vn 0.784702 -0.606008 0.130374
vn 0.784702 -0.606008 0.130374
vn 0.784702 -0.606008 0.130374
vn 0.784702 -0.606008 0.130374
vn 0.784702 -0.606008 0.130374
vn 0.784702 -0.606008 0.130374
vn -0.784702 0.606008 -0.130374
vn -0.784702 0.606008 -0.130374
vn -0.784702 0.606008 -0.130374
vn -0.784702 0.606008 -0.130374
vn -0.784702 0.606008 -0.130374
vn -0.784702 0.606008 -0.130374
vn -0.784702 0.606008 -0.130374
vn -0.784702 0.606008 -0.130374
vn -0.784702 0.606008 -0.130374
vn -0.784702 0.606008 -0.130374
vn -0.784702 0.606008 -0.130374
vn -0.784702 0.606008 -0.130374
vn -0.784702 0.606008 -0.130374
vn -0.784702 0.606008 -0.130374
vn -0.784702 0.606008 -0.130374
s off
g x00_MoveRCanardWing:pCylinder5
usemtl x00_MoveRCanardWing:initialShadingGroup
f 1/1/1 2/2/2 7/3/3 6/4/4
f 2/2/5 3/5/6 8/6/7 7/3/8
f 3/5/9 4/7/10 9/8/11 8/6/12
f 4/7/13 5/9/14 10/10/15 9/8/16
f 5/9/17 1/11/18 6/12/19 10/10/20
f 6/4/21 7/3/22 12/13/23 11/14/24
f 7/3/25 8/6/26 13/15/27 12/13/28
f 8/6/29 9/8/30 14/16/31 13/15/32
f 9/8/33 10/10/34 15/17/35 14/16/36
f 10/10/37 6/12/38 11/18/39 15/17/40
f 2/19/41 1/20/42 16/21/43
f 3/22/44 2/19/45 16/21/46
f 4/23/47 3/22/48 16/21/49
f 5/24/50 4/23/51 16/21/52
f 1/20/53 5/24/54 16/21/55
f 11/25/56 12/26/57 17/27/58
f 12/26/59 13/28/60 17/27/61
f 13/28/62 14/29/63 17/27/64
f 14/29/65 15/30/66 17/27/67
f 15/30/68 11/25/69 17/27/70
